<?xml version="1.0" encoding="utf-8"?>
<!-- Generator: Adobe Illustrator 22.0.0, SVG Export Plug-In . SVG Version: 6.00 Build 0)  -->
<svg version="1.1" id="svg_icon.primary" xmlns="http://www.w3.org/2000/svg" xmlns:xlink="http://www.w3.org/1999/xlink" x="0px"
	 y="0px" viewBox="0 0 160 160" style="enable-background:new 0 0 160 160;" xml:space="preserve">
<style type="text/css">
	.st0{fill:#E8AA8C;}
	.st1{fill:#5E616A;}
	.st2{display:none;fill:#5E616A;}
</style>
<g id="root" transform="translate(0.000000, 15.000000)">
	<path id="shape.secondary" class="st0" d="M147,67c0,35.5-29.3,64.3-65.3,64.3V67H147z"/>
	<path id="shape.secondary_1_" class="st0" d="M16.4,67c0,35.5,29.3,64.3,65.3,64.3V67H16.4z"/>
	<polygon id="shape.primary" class="st1" points="84,64.7 88.5,64.7 88.5,4.9 93,4.9 93,64.7 97.5,64.7 97.5,4.9 102,4.9 102,64.7 
		106.5,64.7 106.5,4.9 111,4.9 111,64.7 115.5,64.7 115.5,4.9 120,4.9 120,64.7 124.5,64.7 124.5,4.9 129,4.9 129,64.7 133.5,64.7 
		133.5,4.9 138,4.9 138,64.7 144.8,64.7 144.8,69.2 84,69.2 84,129 79.4,129 79.4,69.2 18.6,69.2 18.6,64.7 79.4,64.7 79.4,4.9 
		84,4.9 	"/>
	<rect id="icon.primary" x="55" y="39" class="st2" width="22" height="22"/>
	<g id="surface1" transform="translate(0.000000, -97.000000)">
		<path class="st1" d="M35.7,108.7v4.1h4.1v-4.1H35.7z M44,108.7v4.1h4.1v-4.1H44z M52.2,108.7v4.1h4.1v-4.1H52.2z M60.5,108.7v4.1
			h4.1v-4.1H60.5z M31.6,114.8v36.6h37.2v-36.6H31.6z M25.4,118.9v4.1h4.1v-4.1H25.4z M38.8,118.9c1.7,0,3.1,1.4,3.1,3s-1.4,3-3.1,3
			s-3.1-1.4-3.1-3S37.1,118.9,38.8,118.9z M70.8,118.9v4.1h4.1v-4.1H70.8z M25.4,127v4.1h4.1V127H25.4z M70.8,127v4.1h4.1V127H70.8z
			 M25.4,135.1v4.1h4.1v-4.1H25.4z M70.8,135.1v4.1h4.1v-4.1H70.8z M61.5,141.2c1.7,0,3.1,1.4,3.1,3s-1.4,3-3.1,3
			c-1.7,0-3.1-1.4-3.1-3S59.9,141.2,61.5,141.2z M25.4,143.3v4.1h4.1v-4.1H25.4z M70.8,143.3v4.1h4.1v-4.1H70.8z M35.7,153.4v4.1
			h4.1v-4.1H35.7z M44,153.4v4.1h4.1v-4.1H44z M52.2,153.4v4.1h4.1v-4.1H52.2z M60.5,153.4v4.1h4.1v-4.1H60.5z"/>
	</g>
	<path id="shape.primary_1_" class="st1" d="M20.9,7.1V67c0,33.1,27.2,59.8,60.8,59.8S142.5,100,142.5,67V7.1H20.9z M16.4,2.7H147
		V67c0,35.5-29.3,64.3-65.3,64.3S16.4,102.4,16.4,67V2.7z"/>
</g>
</svg>
