<?xml version="1.0" standalone="no"?>
<!DOCTYPE svg PUBLIC "-//W3C//DTD SVG 20010904//EN"
 "http://www.w3.org/TR/2001/REC-SVG-20010904/DTD/svg10.dtd">
<svg version="1.0" xmlns="http://www.w3.org/2000/svg"
 width="160.000000pt" height="160.000000pt" viewBox="0 0 160.000000 160.000000"
 preserveAspectRatio="xMidYMid meet">
<metadata>
Created by potrace 1.11, written by Peter Selinger 2001-2013
</metadata>
<g transform="translate(0.000000,160.000000) scale(0.100000,-0.100000)"
fill="#000000" stroke="none">
<path d="M510 927 c0 -211 10 -248 84 -323 115 -115 297 -115 412 0 74 75 84
112 84 323 l0 173 -290 0 -290 0 0 -173z m280 23 l0 -130 -130 0 -130 0 0 130
0 130 130 0 130 0 0 -130z m40 0 c0 -80 -4 -130 -10 -130 -6 0 -10 50 -10 130
0 80 4 130 10 130 6 0 10 -50 10 -130z m40 0 c0 -80 -4 -130 -10 -130 -6 0
-10 50 -10 130 0 80 4 130 10 130 6 0 10 -50 10 -130z m40 0 c0 -80 -4 -130
-10 -130 -6 0 -10 50 -10 130 0 80 4 130 10 130 6 0 10 -50 10 -130z m40 0 c0
-80 -4 -130 -10 -130 -6 0 -10 50 -10 130 0 80 4 130 10 130 6 0 10 -50 10
-130z m40 0 c0 -80 -4 -130 -10 -130 -6 0 -10 50 -10 130 0 80 4 130 10 130 6
0 10 -50 10 -130z m40 0 c0 -80 -4 -130 -10 -130 -6 0 -10 50 -10 130 0 80 4
130 10 130 6 0 10 -50 10 -130z m40 0 c0 -80 -4 -130 -10 -130 -6 0 -10 50
-10 130 0 80 4 130 10 130 6 0 10 -50 10 -130z"/>
<path d="M573 1034 c-26 -28 -29 -40 -10 -47 10 -4 10 -6 0 -6 -7 -1 -13 -8
-13 -16 0 -8 6 -15 13 -15 8 0 7 -4 -3 -10 -13 -9 -13 -11 0 -20 10 -6 11 -10
3 -10 -21 0 -15 -16 17 -50 25 -27 31 -29 36 -15 5 13 9 14 15 4 11 -18 48
-19 58 -1 7 12 9 11 15 -3 5 -15 10 -12 36 15 32 34 38 50 18 50 -9 0 -8 4 2
10 13 9 13 11 0 20 -10 6 -11 10 -2 10 6 0 12 6 12 14 0 8 -6 17 -12 19 -10 4
-10 6 0 6 19 1 14 18 -13 46 -29 28 -41 31 -48 13 -4 -10 -6 -10 -6 0 -1 6
-14 12 -30 12 -16 0 -32 -6 -34 -12 -4 -10 -6 -10 -6 0 -1 19 -24 12 -48 -14z"/>
</g>
</svg>
